<svg width="40" height="40" viewBox="0 0 40 40" fill="none" xmlns="http://www.w3.org/2000/svg">
<g clip-path="url(#clip0_20147_244806)">
<path d="M20 40.0015C31.0457 40.0015 40 31.0472 40 20.0015C40 8.95577 31.0457 0.00146484 20 0.00146484C8.9543 0.00146484 0 8.95577 0 20.0015C0 31.0472 8.9543 40.0015 20 40.0015Z" fill="#0052FE"/>
<path d="M20.168 14.1354C22.5227 14.1354 24.3906 15.5878 25.1 17.7476H29.8438C28.9844 13.13 25.1746 10.0015 20.2059 10.0015C14.5633 10.0015 10.1562 14.2847 10.1562 20.0206C10.1562 25.7565 14.4531 30.0015 20.2059 30.0015C25.0633 30.0015 28.9488 26.8729 29.809 22.2171H25.0996C24.427 24.3772 22.5605 25.8675 20.2043 25.8675C16.9531 25.8675 14.6746 23.3718 14.6746 20.0206C14.6762 16.6312 16.918 14.1354 20.168 14.1354Z" fill="white"/>
</g>
<defs>
<clipPath id="clip0_20147_244806">
<rect width="40" height="40" fill="white"/>
</clipPath>
</defs>
</svg>
