<svg width="36" height="36" viewBox="0 0 36 36" fill="none" xmlns="http://www.w3.org/2000/svg">
<path d="M18 0C8.055 0 2.92838e-06 8.2036 2.92838e-06 18.3896C-0.00203866 22.2599 1.06341 25.8749 3.27273 29.0147C5.48205 32.1545 8.68739 34.7397 12.2727 35.9619C13.1727 36.1223 13.5 35.6294 13.5 35.1446C13.5 34.7076 13.5 33.0116 13.5 31.4666C8.9784 32.3202 7.72364 30.4613 7.36364 29.4234C7.16024 28.8924 6.49228 27.4102 5.72728 26.9714C5.09728 26.6266 4.22068 25.7676 5.72728 25.7454C7.14567 25.7215 7.84342 26.827 8.18182 27.3801C9.80182 30.1676 12.4668 29.4977 13.5 29.0147C13.6584 27.8163 14.2089 27.0237 14.7273 26.5627C10.7223 26.1018 6.54546 24.6241 6.54546 17.5723C6.54546 15.5664 7.44251 13.9608 8.59091 12.6684C8.41091 12.2075 7.60091 10.2995 8.59091 7.7645C8.59091 7.7645 10.0566 7.02454 13.5 9.39913C14.9653 8.98258 16.4793 8.98741 18 8.99047C19.53 8.99047 21.06 8.98431 22.5 9.39913C25.9416 7.00242 27.4091 7.7645 27.4091 7.7645C28.3991 10.2995 27.9982 12.2075 27.8182 12.6684C28.9648 13.9589 29.4545 15.5443 29.4545 17.5723C29.4545 24.6481 25.2777 26.1018 21.2727 26.5627C21.9243 27.138 22.5 28.1027 22.5 29.832C22.5 32.2969 22.5 34.5214 22.5 35.1446C22.5 35.6276 22.8273 36.1462 23.7273 35.9619C27.3003 34.7263 30.5277 32.1522 32.7273 29.0147C34.9268 25.8771 35.999 22.2522 36 18.3896C36 8.2036 27.945 0 18 0Z" fill="#202124"/>
</svg>
