<svg width="36" height="35" viewBox="0 0 36 35" fill="none" xmlns="http://www.w3.org/2000/svg">
<path d="M18.3158 0C8.37561 0 0 7.83594 0 17.5C0 27.1641 8.37561 35 18.3158 35C28.256 35 36 27.1641 36 17.5C36 7.83594 28.256 0 18.3158 0ZM28.4211 10L26.5263 11.25C26.3817 11.3555 26.4982 11.707 26.5263 11.875V23.125C26.4982 23.2969 26.3817 23.6484 26.5263 23.75L28.4211 25V25.625H20.2105V25L22.1053 23.75C22.27 23.5898 22.1053 23.3633 22.1053 23.125V13.75L17.6842 25.625H17.0526L11.3684 13.75V21.875C11.3202 22.1953 11.767 22.2695 12 22.5L13.8947 25V25.625H7.57895V25L10.1053 22.5C10.2192 22.3856 10.0564 22.0269 10.1053 21.875C10.1319 22.0321 10.1541 21.7231 10.1053 21.875V13.125C10.1334 12.8789 10.2981 12.043 10.1053 11.875L8.21053 10V9.375H13.8947L18.3158 19.375L22.7368 9.375H28.4211V10Z" fill="#202124"/>
</svg>
