<svg width="42" height="40" viewBox="0 0 42 40" fill="none" xmlns="http://www.w3.org/2000/svg">
<path d="M39.0205 1.83936L23.3945 13.4014L26.3003 6.58752L39.0205 1.83936Z" fill="#E17726" stroke="#E17726" stroke-width="0.238096" stroke-linecap="round" stroke-linejoin="round"/>
<path d="M2.97656 1.83936L18.4634 13.5093L15.6968 6.58751L2.97656 1.83936Z" fill="#E27625" stroke="#E27625" stroke-width="0.238096" stroke-linecap="round" stroke-linejoin="round"/>
<path d="M33.3939 28.6479L29.2363 34.9994L38.1389 37.4506L40.6892 28.7868L33.3939 28.6479Z" fill="#E27625" stroke="#E27625" stroke-width="0.238096" stroke-linecap="round" stroke-linejoin="round"/>
<path d="M1.32422 28.7868L3.85897 37.4506L12.7461 34.9994L8.60393 28.6479L1.32422 28.7868Z" fill="#E27625" stroke="#E27625" stroke-width="0.238096" stroke-linecap="round" stroke-linejoin="round"/>
<path d="M12.2678 17.9187L9.79492 21.6494L18.6048 22.0502L18.3111 12.5693L12.2678 17.9187Z" fill="#E27625" stroke="#E27625" stroke-width="0.238096" stroke-linecap="round" stroke-linejoin="round"/>
<path d="M29.7313 17.9187L23.5955 12.4614L23.3945 22.0503L32.2043 21.6494L29.7313 17.9187Z" fill="#E27625" stroke="#E27625" stroke-width="0.238096" stroke-linecap="round" stroke-linejoin="round"/>
<path d="M12.7461 34.9996L18.0783 32.4252L13.488 28.8486L12.7461 34.9996Z" fill="#E27625" stroke="#E27625" stroke-width="0.238096" stroke-linecap="round" stroke-linejoin="round"/>
<path d="M23.9219 32.4252L29.2386 34.9996L28.5122 28.8486L23.9219 32.4252Z" fill="#E27625" stroke="#E27625" stroke-width="0.238096" stroke-linecap="round" stroke-linejoin="round"/>
<path d="M29.2386 34.9992L23.9219 32.4248L24.3546 35.878L24.3082 37.3425L29.2386 34.9992Z" fill="#D5BFB2" stroke="#D5BFB2" stroke-width="0.238096" stroke-linecap="round" stroke-linejoin="round"/>
<path d="M12.7461 34.9992L17.692 37.3425L17.6611 35.878L18.0783 32.4248L12.7461 34.9992Z" fill="#D5BFB2" stroke="#D5BFB2" stroke-width="0.238096" stroke-linecap="round" stroke-linejoin="round"/>
<path d="M17.7837 26.567L13.3633 25.2721L16.4854 23.8384L17.7837 26.567Z" fill="#233447" stroke="#233447" stroke-width="0.238096" stroke-linecap="round" stroke-linejoin="round"/>
<path d="M24.2148 26.567L25.5132 23.8384L28.6507 25.2721L24.2148 26.567Z" fill="#233447" stroke="#233447" stroke-width="0.238096" stroke-linecap="round" stroke-linejoin="round"/>
<path d="M12.7476 34.9994L13.5205 28.6479L8.60547 28.7868L12.7476 34.9994Z" fill="#CC6228" stroke="#CC6228" stroke-width="0.238096" stroke-linecap="round" stroke-linejoin="round"/>
<path d="M28.4805 28.6479L29.2378 34.9994L33.3954 28.7868L28.4805 28.6479Z" fill="#CC6228" stroke="#CC6228" stroke-width="0.238096" stroke-linecap="round" stroke-linejoin="round"/>
<path d="M32.2043 21.6489L23.3945 22.0497L24.2137 26.5668L25.512 23.838L28.6495 25.2717L32.2043 21.6489Z" fill="#CC6228" stroke="#CC6228" stroke-width="0.238096" stroke-linecap="round" stroke-linejoin="round"/>
<path d="M13.3652 25.2717L16.4873 23.838L17.7856 26.5668L18.6048 22.0497L9.79492 21.6489L13.3652 25.2717Z" fill="#CC6228" stroke="#CC6228" stroke-width="0.238096" stroke-linecap="round" stroke-linejoin="round"/>
<path d="M9.79492 21.6489L13.4889 28.8483L13.3652 25.2717L9.79492 21.6489Z" fill="#E27525" stroke="#E27525" stroke-width="0.238096" stroke-linecap="round" stroke-linejoin="round"/>
<path d="M28.6508 25.2717L28.5117 28.8483L32.2057 21.6489L28.6508 25.2717Z" fill="#E27525" stroke="#E27525" stroke-width="0.238096" stroke-linecap="round" stroke-linejoin="round"/>
<path d="M18.6044 22.0498L17.7852 26.5668L18.8207 31.9007L19.0526 24.871L18.6044 22.0498Z" fill="#E27525" stroke="#E27525" stroke-width="0.238096" stroke-linecap="round" stroke-linejoin="round"/>
<path d="M23.3957 22.0498L22.9629 24.8556L23.1793 31.9007L24.2148 26.5668L23.3957 22.0498Z" fill="#E27525" stroke="#E27525" stroke-width="0.238096" stroke-linecap="round" stroke-linejoin="round"/>
<path d="M24.2133 26.567L23.1777 31.9009L23.9196 32.4251L28.5101 28.8485L28.6491 25.272L24.2133 26.567Z" fill="#F5841F" stroke="#F5841F" stroke-width="0.238096" stroke-linecap="round" stroke-linejoin="round"/>
<path d="M13.3633 25.272L13.487 28.8485L18.0773 32.4251L18.8192 31.9009L17.7837 26.567L13.3633 25.272Z" fill="#F5841F" stroke="#F5841F" stroke-width="0.238096" stroke-linecap="round" stroke-linejoin="round"/>
<path d="M24.3071 37.3423L24.3534 35.8778L23.9516 35.5386H18.0475L17.6611 35.8778L17.692 37.3423L12.7461 34.999L14.4771 36.4173L17.9856 38.8377H23.9979L27.5218 36.4173L29.2374 34.999L24.3071 37.3423Z" fill="#C0AC9D" stroke="#C0AC9D" stroke-width="0.238096" stroke-linecap="round" stroke-linejoin="round"/>
<path d="M23.9198 32.425L23.1778 31.9009H18.8193L18.0775 32.425L17.6602 35.8782L18.0466 35.5391H23.9507L24.3526 35.8782L23.9198 32.425Z" fill="#161616" stroke="#161616" stroke-width="0.238096" stroke-linecap="round" stroke-linejoin="round"/>
<path d="M39.6868 14.1568L41.0006 7.77456L39.0222 1.83936L23.9219 13.0161L29.7332 17.9183L37.9403 20.3079L39.7486 18.1959L38.9604 17.6254L40.2123 16.4847L39.2541 15.7447L40.506 14.7889L39.6868 14.1568Z" fill="#763E1A" stroke="#763E1A" stroke-width="0.238096" stroke-linecap="round" stroke-linejoin="round"/>
<path d="M1 7.77456L2.32921 14.1568L1.47914 14.7889L2.74651 15.7447L1.78825 16.4847L3.04017 17.6254L2.25192 18.1959L4.06026 20.3079L12.2674 17.9183L18.0787 13.0161L2.97835 1.83936L1 7.77456Z" fill="#763E1A" stroke="#763E1A" stroke-width="0.238096" stroke-linecap="round" stroke-linejoin="round"/>
<path d="M37.9398 20.3079L29.7327 17.9185L32.2057 21.6492L28.5117 28.8484L33.3958 28.7868H40.6909L37.9398 20.3079Z" fill="#F5841F" stroke="#F5841F" stroke-width="0.238096" stroke-linecap="round" stroke-linejoin="round"/>
<path d="M12.2669 17.9185L4.0599 20.3079L1.32422 28.7868H8.60393L13.4879 28.8484L9.79403 21.6492L12.2669 17.9185Z" fill="#F5841F" stroke="#F5841F" stroke-width="0.238096" stroke-linecap="round" stroke-linejoin="round"/>
<path d="M23.3962 22.0498L23.9217 13.0159L26.3019 6.5874H15.6992L18.0794 13.0159L18.6049 22.0498L18.8058 24.8863L18.8213 31.9007H23.1798L23.1953 24.8863L23.3962 22.0498Z" fill="#F5841F" stroke="#F5841F" stroke-width="0.238096" stroke-linecap="round" stroke-linejoin="round"/>
</svg>
