<svg width="40" height="40" viewBox="0 0 40 40" fill="none" xmlns="http://www.w3.org/2000/svg">
<path d="M6.125 21.084V30.3757V9.62565V21.084ZM24.125 34.084C24.7917 34.084 25.3472 33.8548 25.7917 33.3965C26.2361 32.9382 26.4583 32.3757 26.4583 31.709C26.4583 31.0423 26.2361 30.4868 25.7917 30.0423C25.3472 29.5979 24.7778 29.3757 24.0833 29.3757C23.4444 29.3757 22.8958 29.5979 22.4375 30.0423C21.9792 30.4868 21.75 31.0562 21.75 31.7507C21.75 32.3895 21.9792 32.9382 22.4375 33.3965C22.8958 33.8548 23.4583 34.084 24.125 34.084ZM33.5417 20.0007C34.2083 20.0007 34.7708 19.7715 35.2292 19.3132C35.6875 18.8548 35.9167 18.2923 35.9167 17.6257C35.9167 16.959 35.6875 16.3965 35.2292 15.9382C34.7708 15.4798 34.1944 15.2507 33.5 15.2507C32.8611 15.2507 32.3125 15.4798 31.8542 15.9382C31.3958 16.3965 31.1667 16.959 31.1667 17.6257C31.1667 18.2923 31.3958 18.8548 31.8542 19.3132C32.3125 19.7715 32.875 20.0007 33.5417 20.0007ZM10.8333 17.1257H19.625V15.834H10.8333V17.1257ZM10.8333 24.1673H19.625V22.8757H10.8333V24.1673ZM7.16667 31.6673C6.52778 31.6673 5.98611 31.4451 5.54167 31.0007C5.09722 30.5562 4.875 30.0145 4.875 29.3757V10.6257C4.875 9.98676 5.09722 9.4451 5.54167 9.00065C5.98611 8.55621 6.52778 8.33398 7.16667 8.33398H32.8333C33.4722 8.33398 34.0139 8.55621 34.4583 9.00065C34.9028 9.4451 35.125 9.98676 35.125 10.6257H33.875C33.875 10.3757 33.7639 10.1465 33.5417 9.93815C33.3194 9.72982 33.0833 9.62565 32.8333 9.62565H7.16667C6.91667 9.62565 6.68056 9.72982 6.45833 9.93815C6.23611 10.1465 6.125 10.3757 6.125 10.6257V29.3757C6.125 29.6257 6.23611 29.8548 6.45833 30.0632C6.68056 30.2715 6.91667 30.3757 7.16667 30.3757H17.5V31.6673H7.16667ZM24.0833 35.3757C23.0833 35.3757 22.2292 35.0215 21.5208 34.3132C20.8125 33.6048 20.4583 32.7507 20.4583 31.7507C20.4583 30.834 20.7431 30.0423 21.3125 29.3757C21.8819 28.709 22.5972 28.2923 23.4583 28.1257V24.0423H32.875V21.2507C32.0139 21.084 31.2986 20.6673 30.7292 20.0007C30.1597 19.334 29.875 18.5423 29.875 17.6257C29.875 16.6257 30.2292 15.7645 30.9375 15.0423C31.6458 14.3201 32.5139 13.959 33.5417 13.959C34.5417 13.959 35.3958 14.3201 36.1042 15.0423C36.8125 15.7645 37.1667 16.6257 37.1667 17.6257C37.1667 18.5423 36.8819 19.334 36.3125 20.0007C35.7431 20.6673 35.0278 21.084 34.1667 21.2507V25.334H24.75V28.1257C25.6111 28.2923 26.3264 28.709 26.8958 29.3757C27.4653 30.0423 27.75 30.834 27.75 31.7507C27.75 32.7507 27.3958 33.6048 26.6875 34.3132C25.9792 35.0215 25.1111 35.3757 24.0833 35.3757Z" fill="#202124"/>
</svg>
