<svg width="35" height="35" viewBox="0 0 35 35" fill="none" xmlns="http://www.w3.org/2000/svg">
<path fill-rule="evenodd" clip-rule="evenodd" d="M35 17.5C35 27.1644 27.4714 35 17.807 35C8.14264 35 0 27.1644 0 17.5C0 7.83563 8.14264 0 17.807 0C27.4714 0 35 7.83563 35 17.5ZM18.4211 13.125C16.7192 13.8323 13.0837 15.2775 7.98246 17.5C7.15412 17.8296 6.79376 17.81 6.75439 18.125C6.6873 18.6588 7.07537 19.0906 7.98246 19.375C8.10641 19.4144 8.46524 19.3312 8.59649 19.375C9.49045 19.6652 10.4285 19.9869 11.0526 20C11.6199 20.0117 12.1962 19.8533 12.8947 19.375C17.6606 16.1565 20.1086 14.41 20.2632 14.375C20.3725 14.3502 20.7751 14.2831 20.8772 14.375C20.9793 14.4654 20.8874 14.9533 20.8772 15C20.8101 15.2815 18.5492 17.49 17.193 18.75C16.7701 19.1423 16.0262 19.3108 15.9649 19.375C15.8278 19.5165 16.0991 19.8702 15.9649 20C15.1337 20.7992 14.4774 21.52 15.9649 22.5C16.6795 22.971 17.2368 23.3621 17.807 23.75C18.4297 24.1744 18.8441 24.4721 19.6491 25C19.8533 25.1342 20.0721 25.4894 20.2632 25.625C20.9879 26.1427 21.9143 26.3229 22.7193 26.25C23.186 26.2062 23.0883 25.686 23.3333 24.375C23.9123 21.2746 25.5255 14.6429 25.7895 11.875C25.8055 11.6452 25.8249 11.4776 25.7895 11.25C25.7683 11.0661 25.3155 10.7459 25.1754 10.625C24.9669 10.4544 24.7072 10.6221 24.5614 10.625C23.9037 10.6367 23.2817 11.1038 18.4211 13.125Z" fill="#202124"/>
</svg>
