<svg width="40" height="40" viewBox="0 0 40 40" fill="none" xmlns="http://www.w3.org/2000/svg">
<path d="M40 0.59082V14.2083L0 30.2989L40 0.59082Z" fill="#2AE5FE"/>
<path d="M32.7992 0V24.6248C32.7992 28.066 31.4507 31.3663 29.0502 33.7996C26.6497 36.233 23.394 37.6 19.9992 37.6C16.6045 37.6 13.3487 36.233 10.9482 33.7996C8.54779 31.3663 7.19922 28.066 7.19922 24.6248V14.2486L14.8779 9.96487V24.6248C14.806 25.2646 14.8683 25.9126 15.0606 26.5263C15.253 27.1401 15.571 27.7056 15.994 28.186C16.4171 28.6664 16.9354 29.0508 17.5151 29.314C18.0949 29.5772 18.723 29.7134 19.3583 29.7134C19.9935 29.7134 20.6216 29.5772 21.2013 29.314C21.7811 29.0508 22.2995 28.6664 22.7224 28.186C23.1454 27.7056 23.4636 27.1401 23.6559 26.5263C23.8483 25.9126 23.9105 25.2646 23.8386 24.6248V4.96936L32.7992 0Z" fill="#423EF6"/>
</svg>
