<svg width="33" height="33" viewBox="0 0 33 33" fill="none" xmlns="http://www.w3.org/2000/svg">
<path fill-rule="evenodd" clip-rule="evenodd" d="M10.1907 13.9064L16.5023 7.5947L22.8194 13.9118L26.4918 10.2394L16.5023 0.25L6.51831 10.234L10.1907 13.9064ZM0.25 16.5011L3.92139 12.8297L7.59278 16.5011L3.92139 20.1725L0.25 16.5011ZM16.5016 25.4102L10.1899 19.0985L6.51211 22.7654L6.51752 22.7709L16.5016 32.7549L26.491 22.7654L22.8186 19.0931L16.5016 25.4102ZM25.4058 16.504L29.0772 12.8326L32.7485 16.504L29.0772 20.1754L25.4058 16.504ZM16.5004 12.7763L20.2268 16.5027L16.5004 20.2346L12.7739 16.5081V16.4973L13.4284 15.8429L13.7474 15.5292L16.5004 12.7763Z" fill="#F3BA2F"/>
</svg>
