<svg width="21" height="33" viewBox="0 0 21 33" fill="none" xmlns="http://www.w3.org/2000/svg">
<path d="M10.7036 0.25V12.2131C10.7036 12.2639 10.6528 12.3147 10.602 12.3147C10.2465 12.47 9.94182 12.6238 9.58633 12.7776C9.12928 12.9822 8.62145 13.1882 8.16439 13.445L6.48854 14.214L5.11738 14.8307L3.44153 15.6011C2.98448 15.8072 2.52742 16.0118 2.01959 16.2686C1.6641 16.4224 1.25784 16.6284 0.902351 16.7822C0.851567 16.7822 0.851567 16.833 0.800784 16.7822H0.75C0.902351 16.5254 1.0547 16.3194 1.20705 16.064C2.01959 14.6769 2.88291 13.2912 3.69544 11.9041C4.55876 10.4169 5.47287 8.92673 6.33619 7.43805C7.14872 6.05238 7.96126 4.66672 8.7738 3.33183C9.3832 2.30311 9.9926 1.32951 10.5512 0.300784C10.6528 0.300784 10.6528 0.25 10.7036 0.25C10.7036 0.25 10.6528 0.25 10.7036 0.25Z" fill="#8C8C8C"/>
<path d="M20.5551 16.782C19.7934 17.2956 18.9808 17.757 18.2191 18.2184C15.7307 19.7085 13.2931 21.1464 10.8047 22.6351C10.7539 22.6351 10.7539 22.6859 10.7031 22.6859C10.6523 22.6859 10.6523 22.6351 10.6523 22.6351V12.3145C10.6523 12.2637 10.7031 12.2637 10.7539 12.2637C10.957 12.3652 11.1602 12.4697 11.4141 12.5713C12.0235 12.8803 12.6837 13.1371 13.2931 13.4448C13.8517 13.7016 14.3595 13.9584 14.9182 14.163C15.4768 14.4198 15.9846 14.6766 16.5432 14.9334C17.0003 15.1395 17.5081 15.3441 17.9652 15.6009C18.4222 15.8069 18.9301 16.0115 19.3871 16.2683C19.7426 16.4221 20.0981 16.6282 20.5043 16.782C20.5043 16.7312 20.5043 16.782 20.5551 16.782Z" fill="#141414"/>
<path d="M10.7036 32.7501C10.6528 32.7501 10.7036 32.7501 10.7036 32.7501C10.6528 32.7501 10.6528 32.7501 10.602 32.6979C9.58633 31.2615 8.62144 29.8743 7.60577 28.4364L4.55876 24.1242C3.59387 22.7385 2.5782 21.3529 1.61332 19.9135L0.851565 18.8355C0.851565 18.7847 0.800781 18.7847 0.800781 18.7339C0.851565 18.7339 0.851565 18.7847 0.902348 18.7847C2.2735 19.6059 3.69544 20.4272 5.0666 21.2484C6.64089 22.2249 8.26596 23.1491 9.84025 24.1242C10.0942 24.278 10.3989 24.4318 10.6528 24.5856C10.7036 24.5856 10.7036 24.6378 10.7036 24.6886V32.7501Z" fill="#8C8C8C"/>
<path d="M0.75 16.2448C0.75 16.1941 0.75 16.1941 0.75 16.2448C1.25784 15.988 1.76567 15.7834 2.27351 15.5266L4.25406 14.6024C4.7619 14.3455 5.26973 14.141 5.77757 13.8841C6.48854 13.5243 7.25029 13.2167 7.96126 12.8569C8.4691 12.6508 8.97693 12.394 9.48477 12.1894C9.84025 12.0356 10.1957 11.8818 10.5512 11.6758C10.602 11.6758 10.602 11.625 10.6528 11.625V22.098C10.602 22.1502 10.602 22.098 10.5512 22.098C10.3989 21.9964 10.2465 21.9442 10.145 21.8412L0.851567 16.2971C0.800784 16.2448 0.75 16.2448 0.75 16.2448ZM20.4032 18.1456C20.4032 18.1964 20.4032 18.1964 20.3524 18.2472C17.407 22.4578 14.4616 26.6163 11.5161 30.827C11.2114 31.2884 10.9067 31.699 10.602 32.1619V23.9973C11.2622 23.5867 11.9224 23.1761 12.5826 22.8177L20.3524 18.1964C20.3524 18.1456 20.4032 18.1456 20.4032 18.1456Z" fill="#3C3C3B"/>
<path d="M10.7031 12.264V0.303711L20.4536 16.6299C20.5043 16.6807 20.5551 16.7315 20.5551 16.7837C20.352 16.6821 20.1489 16.5777 19.8949 16.4761C19.641 16.3731 19.3871 16.2193 19.1332 16.1162C18.9808 16.0655 18.8285 15.9624 18.6254 15.9102C18.3714 15.8086 18.0667 15.6534 17.8128 15.5518C17.6605 15.4996 17.5081 15.398 17.3558 15.3458L16.2893 14.8844C16.0862 14.7814 15.9338 14.7306 15.7307 14.6276C15.4768 14.5245 15.2229 14.3707 14.9689 14.2677C14.8166 14.2169 14.6642 14.1139 14.5119 14.0631L13.4454 13.6003C13.2423 13.4987 13.09 13.4465 12.8868 13.3435C12.6329 13.2419 12.379 13.0866 12.1251 12.9836C11.9727 12.8821 11.7696 12.8298 11.6172 12.7283L10.7031 12.2654V12.264Z" fill="#343434"/>
</svg>
