<svg width="34" height="35" viewBox="0 0 34 35" fill="none" xmlns="http://www.w3.org/2000/svg">
<path fill-rule="evenodd" clip-rule="evenodd" d="M10.8212 4.87119L17.3956 8.78184L24.2301 4.8993L17.5413 1.02979L17.5412 1.02986L17.541 1.02979H17.5409L10.8212 4.87119ZM31.923 17.1233L25.1746 20.9878L25.1746 13.702V13.409L24.9229 13.2592L18.4146 9.38794L25.2654 5.49606L31.8971 9.33249L31.9226 9.31787V9.31817L31.923 9.31795V17.1233ZM31.931 20.9422L29.4659 22.2941V19.7177L31.931 18.306V20.9422ZM30.907 22.6788L31.9389 22.1129V25.9448V25.9452L29.4658 27.359L29.4659 23.5026L30.907 22.6788ZM25.1746 29.7581L25.1746 25.9018L28.2375 24.1509V24.151L28.2377 24.151V28.0066V28.0071L25.1746 29.7581ZM10.7669 30.3134L10.7669 22.6532L17.2542 26.4147L17.511 26.5637L17.7686 26.4161L24.1443 22.7651L24.1443 30.3752L17.4717 34.1898V34.192L17.4714 34.1919V34.192L17.4696 34.191L17.4684 34.1916L17.4683 34.1915H17.4682L17.4668 34.1908V34.1894L10.7669 30.3134ZM3.09375 18.2041L9.73662 22.0558L9.73663 29.6457L3.09704 25.8045L3.09375 25.8025V18.2041ZM3.0996 14.3719L5.94403 15.9412L5.94403 18.6658L3.0996 17.0165V14.3719ZM5.93531 7.61706L8.86941 9.41538L6.20962 10.8884L5.94404 11.0354L5.94404 11.339L5.94403 14.7413L3.09333 13.0921L3.0918 13.0912V9.24487L3.08984 9.24374L5.93531 7.61706ZM9.79893 5.4619L7.0006 7.06156L9.90517 8.84178L12.7927 7.24268L9.79893 5.4619ZM28.2299 20.4255V22.9718L25.1746 24.6473V22.1751L28.2299 20.4255ZM13.5008 10.9944L16.3648 9.36745L13.818 7.85259L10.9146 9.46048L12.0127 10.1335L13.5008 10.9944ZM6.97434 15.2607L6.97434 11.6426L7.17629 11.5308L9.84202 13.0729L9.7366 13.1328L9.7366 13.4326L9.73661 16.857L9.6683 16.8193L6.97434 15.2607ZM9.84291 13.0724L7.17713 11.5303L9.87887 10.0341L12.4343 11.6003L9.9973 12.9847L9.84291 13.0724ZM23.9158 13.859L24.1443 13.995L24.1443 21.5778L17.5142 25.3745L10.7669 21.4622L10.7669 13.7325L17.3837 9.97355L23.9151 13.8586L21.5352 15.2199L23.9158 13.859ZM9.73661 18.0337L9.73662 20.8648L6.97433 19.2632L6.97433 16.5097L9.73661 18.0337Z" fill="#202124"/>
</svg>
