<svg width="31" height="26" viewBox="0 0 31 26" fill="none" xmlns="http://www.w3.org/2000/svg">
<path d="M22.9474 8.48471C22.4077 8.16665 21.7061 8.16665 21.1126 8.48471L16.9031 10.9232L14.0429 12.5135L9.83348 14.952C9.29381 15.27 8.59224 15.27 7.99861 14.952L4.65267 13.0436C4.113 12.7255 3.73524 12.1424 3.73524 11.5063V7.74256C3.73524 7.10644 4.05904 6.52333 4.65267 6.20526L7.94464 4.3499C8.48431 4.03184 9.18588 4.03184 9.77951 4.3499L13.0715 6.20526C13.6111 6.52333 13.9889 7.10644 13.9889 7.74256V10.1811L16.8491 8.53773V6.09925C16.8491 5.46312 16.5254 4.88 15.9317 4.56194L9.83348 1.06325C9.29381 0.745191 8.59224 0.745191 7.99861 1.06325L1.79244 4.56194C1.1988 4.88 0.875 5.46312 0.875 6.09925V13.1496C0.875 13.7858 1.1988 14.3689 1.79244 14.687L7.99861 18.1856C8.53827 18.5037 9.23985 18.5037 9.83348 18.1856L14.0429 15.8002L16.9031 14.1568L21.1126 11.7714C21.6522 11.4533 22.3537 11.4533 22.9474 11.7714L26.2394 13.6267C26.779 13.9448 27.1568 14.5279 27.1568 15.164V18.9277C27.1568 19.5639 26.833 20.147 26.2394 20.4651L22.9474 22.3735C22.4077 22.6915 21.7061 22.6915 21.1126 22.3735L17.8206 20.5181C17.2809 20.2 16.9031 19.6169 16.9031 18.9808V16.5423L14.0429 18.1856V20.6241C14.0429 21.2602 14.3667 21.8433 14.9603 22.1614L21.1665 25.6601C21.7061 25.9781 22.4077 25.9781 23.0013 25.6601L29.2076 22.1614C29.7472 21.8433 30.125 21.2602 30.125 20.6241V13.5737C30.125 12.9376 29.8011 12.3545 29.2076 12.0365L22.9474 8.48471Z" fill="#8247E5"/>
</svg>
