<svg width="40" height="40" viewBox="0 0 40 40" fill="none" xmlns="http://www.w3.org/2000/svg">
<path d="M27.8795 15.0586C27.3113 14.727 26.5593 14.727 25.941 15.0586L21.479 17.6121L18.4542 19.2868L13.9922 21.857C13.424 22.1886 12.672 22.1886 12.0536 21.857L8.51078 19.8506C7.94259 19.519 7.54151 18.9055 7.54151 18.2422V14.2793C7.54151 13.616 7.89245 13.0025 8.51078 12.6709L12.0035 10.7142C12.5717 10.3826 13.3237 10.3826 13.942 10.7142L17.4348 12.6709C18.003 13.0025 18.404 13.616 18.404 14.2793V16.8494L21.4288 15.1249V12.5382C21.4288 11.8749 21.0779 11.2614 20.4596 10.9298L13.9922 7.24872C13.424 6.91709 12.672 6.91709 12.0536 7.24872L5.46927 10.9298C4.83423 11.2614 4.5 11.8749 4.5 12.5382V19.9501C4.5 20.6134 4.85094 21.2269 5.46927 21.5585L12.0369 25.2396C12.6051 25.5712 13.3571 25.5712 13.9755 25.2396L18.4542 22.7524L21.479 21.0279L25.941 18.5241C26.5092 18.1925 27.2612 18.1925 27.8795 18.5241L31.3722 20.4807C31.9404 20.8123 32.3415 21.4259 32.3415 22.0891V26.0521C32.3415 26.7153 31.9906 27.3288 31.3722 27.6605L27.8795 29.6668C27.3113 29.9985 26.5593 29.9985 25.941 29.6668L22.4482 27.7102C21.8801 27.3786 21.479 26.7651 21.479 26.1018V23.5317L18.4542 25.2562V27.8263C18.4542 28.4895 18.8051 29.1031 19.4235 29.4347L25.9911 33.1158C26.5593 33.4474 27.3113 33.4474 27.9297 33.1158L34.514 29.4347C35.0822 29.1031 35.4833 28.4895 35.4833 27.8263V20.3978C35.4833 19.7345 35.1323 19.121 34.514 18.7894L27.8795 15.0586Z" fill="black"/>
</svg>
