<svg width="40" height="40" viewBox="0 0 40 40" fill="none" xmlns="http://www.w3.org/2000/svg">
<path d="M4.625 17.3737L11.75 4.95703L18.8333 17.3737H4.625ZM11.7917 34.207C10.1528 34.207 8.76389 33.6376 7.625 32.4987C6.48611 31.3598 5.91667 29.9709 5.91667 28.332C5.91667 26.6931 6.48611 25.3043 7.625 24.1654C8.76389 23.0265 10.1528 22.457 11.7917 22.457C13.4306 22.457 14.8125 23.0265 15.9375 24.1654C17.0625 25.3043 17.625 26.6931 17.625 28.332C17.625 29.9709 17.0625 31.3598 15.9375 32.4987C14.8125 33.6376 13.4306 34.207 11.7917 34.207ZM11.7917 32.9154C13.0417 32.9154 14.1181 32.4709 15.0208 31.582C15.9236 30.6931 16.375 29.6098 16.375 28.332C16.375 27.0543 15.9236 25.9709 15.0208 25.082C14.1181 24.1931 13.0417 23.7487 11.7917 23.7487C10.5139 23.7487 9.43056 24.1931 8.54167 25.082C7.65278 25.9709 7.20833 27.0543 7.20833 28.332C7.20833 29.6098 7.65278 30.6931 8.54167 31.582C9.43056 32.4709 10.5139 32.9154 11.7917 32.9154ZM6.83333 16.082H16.6667L11.75 7.58203L6.83333 16.082ZM22.5417 34.207V22.457H34.25V34.207H22.5417ZM23.8333 32.9154H33V23.7487H23.8333V32.9154ZM28.4167 17.3737C27.3889 16.5404 26.4444 15.7765 25.5833 15.082C24.7222 14.3876 23.9792 13.707 23.3542 13.0404C22.7292 12.3737 22.25 11.714 21.9167 11.0612C21.5833 10.4084 21.4167 9.72092 21.4167 8.9987C21.4167 7.9987 21.7431 7.17925 22.3958 6.54036C23.0486 5.90148 23.875 5.58203 24.875 5.58203C25.5139 5.58203 26.125 5.74175 26.7083 6.0612C27.2917 6.38064 27.8611 6.8737 28.4167 7.54036C28.9444 6.8737 29.5069 6.38064 30.1042 6.0612C30.7014 5.74175 31.3194 5.58203 31.9583 5.58203C32.9306 5.58203 33.7431 5.92231 34.3958 6.60286C35.0486 7.28342 35.375 8.1237 35.375 9.1237C35.375 9.81814 35.2083 10.4848 34.875 11.1237C34.5417 11.7626 34.0625 12.4084 33.4375 13.0612C32.8125 13.714 32.0764 14.3876 31.2292 15.082C30.3819 15.7765 29.4444 16.5404 28.4167 17.3737ZM28.4167 15.707C30.5 14.0959 31.9653 12.7904 32.8125 11.7904C33.6597 10.7904 34.0833 9.88759 34.0833 9.08203C34.0833 8.44314 33.8819 7.91536 33.4792 7.4987C33.0764 7.08203 32.5694 6.8737 31.9583 6.8737C31.5694 6.8737 31.1875 6.99175 30.8125 7.22786C30.4375 7.46398 29.9028 7.90148 29.2083 8.54036L28.4167 9.33203L27.5833 8.54036C26.9167 7.8737 26.3889 7.42925 26 7.20703C25.6111 6.98481 25.2222 6.8737 24.8333 6.8737C24.1944 6.8737 23.6806 7.06814 23.2917 7.45703C22.9028 7.84592 22.7083 8.3737 22.7083 9.04036C22.7083 9.8737 23.1319 10.7904 23.9792 11.7904C24.8264 12.7904 26.3056 14.0959 28.4167 15.707Z" fill="#202124"/>
</svg>
