<svg width="40" height="40" viewBox="0 0 40 40" fill="none" xmlns="http://www.w3.org/2000/svg">
<path d="M10.6237 35C10.0126 35 9.47786 34.7708 9.01953 34.3125C8.5612 33.8542 8.33203 33.3194 8.33203 32.7083V17.4167C8.33203 16.7778 8.5612 16.2361 9.01953 15.7917C9.47786 15.3472 10.0126 15.125 10.6237 15.125H13.5404V11.4583C13.5404 9.65278 14.1654 8.125 15.4154 6.875C16.6654 5.625 18.1931 5 19.9987 5C21.8043 5 23.332 5.625 24.582 6.875C25.832 8.125 26.457 9.65278 26.457 11.4583V15.125H29.3737C29.9848 15.125 30.5195 15.3472 30.9779 15.7917C31.4362 16.2361 31.6654 16.7778 31.6654 17.4167V32.7083C31.6654 33.3194 31.4362 33.8542 30.9779 34.3125C30.5195 34.7708 29.9848 35 29.3737 35H10.6237ZM10.6237 33.7083H29.3737C29.6515 33.7083 29.8876 33.6111 30.082 33.4167C30.2765 33.2222 30.3737 32.9861 30.3737 32.7083V17.4167C30.3737 17.1389 30.2765 16.9028 30.082 16.7083C29.8876 16.5139 29.6515 16.4167 29.3737 16.4167H10.6237C10.3459 16.4167 10.1098 16.5139 9.91536 16.7083C9.72092 16.9028 9.6237 17.1389 9.6237 17.4167V32.7083C9.6237 32.9861 9.72092 33.2222 9.91536 33.4167C10.1098 33.6111 10.3459 33.7083 10.6237 33.7083ZM19.9987 27.5C20.6654 27.5 21.2418 27.2639 21.7279 26.7917C22.214 26.3194 22.457 25.75 22.457 25.0833C22.457 24.4444 22.214 23.875 21.7279 23.375C21.2418 22.875 20.6654 22.625 19.9987 22.625C19.332 22.625 18.7556 22.875 18.2695 23.375C17.7834 23.875 17.5404 24.4444 17.5404 25.0833C17.5404 25.75 17.7834 26.3194 18.2695 26.7917C18.7556 27.2639 19.332 27.5 19.9987 27.5ZM14.7904 15.125H25.207V11.4583C25.207 10.0139 24.7001 8.79167 23.6862 7.79167C22.6723 6.79167 21.4431 6.29167 19.9987 6.29167C18.5543 6.29167 17.3251 6.79167 16.3112 7.79167C15.2973 8.79167 14.7904 10.0139 14.7904 11.4583V15.125Z" fill="#202124"/>
</svg>
